<?xml version="1.0" encoding="UTF-8"?>
<!DOCTYPE svg PUBLIC "-//W3C//DTD SVG 1.1//EN" "http://www.w3.org/Graphics/SVG/1.1/DTD/svg11.dtd">
<svg xmlns="http://www.w3.org/2000/svg" version="1.1" width="512px" height="512px" style="shape-rendering:geometricPrecision; text-rendering:geometricPrecision; image-rendering:optimizeQuality; fill-rule:evenodd; clip-rule:evenodd" xmlns:xlink="http://www.w3.org/1999/xlink">
<g><path style="opacity:0.937" fill="#000000" d="M 197.5,15.5 C 220.219,12.911 241.885,16.411 262.5,26C 270.675,30.5162 277.842,36.3495 284,43.5C 294.667,57.5 305.333,71.5 316,85.5C 318.627,89.9194 321.127,94.4194 323.5,99C 361.011,105.423 393.677,121.423 421.5,147C 454.913,177.313 478.08,214.147 491,257.5C 499.011,284.165 498.011,310.498 488,336.5C 483.762,345.811 477.928,353.978 470.5,361C 456.208,372.29 442.208,383.957 428.5,396C 407.998,409.219 385.665,413.553 361.5,409C 352.551,407.43 343.884,404.93 335.5,401.5C 334.201,402.09 333.368,403.09 333,404.5C 327,419.167 321,433.833 315,448.5C 303.073,468.56 285.906,482.06 263.5,489C 225.267,499.154 187.267,498.154 149.5,486C 110.253,473.712 76.4199,452.879 48,423.5C 27.9991,402.325 16.8324,377.159 14.5,348C 14.924,338.88 16.7573,330.047 20,321.5C 26.4712,305.086 33.1379,288.753 40,272.5C 42.0414,268.916 44.208,265.416 46.5,262C 37.5565,251.056 29.3899,239.556 22,227.5C 13.6954,206.511 12.6954,185.177 19,163.5C 26.7585,137.637 39.4252,114.637 57,94.5C 94.5471,51.6433 141.38,25.31 197.5,15.5 Z M 212.5,31.5 C 232.81,31.2137 250.81,37.3803 266.5,50C 283.179,69.8769 287.679,92.3769 280,117.5C 271.721,144.084 258.055,167.417 239,187.5C 209.035,219.073 172.869,240.239 130.5,251C 105.083,257.614 80.7496,254.947 57.5,243C 35.0303,225.326 27.197,202.493 34,174.5C 43.7454,139.509 62.2454,110.009 89.5,86C 118.793,59.6857 152.793,42.3524 191.5,34C 198.649,33.163 205.649,32.3297 212.5,31.5 Z M 201.5,94.5 C 203.199,94.3398 204.866,94.5065 206.5,95C 184,112.167 161.5,129.333 139,146.5C 136.92,132.858 135.087,119.192 133.5,105.5C 156.364,102.244 179.031,98.5776 201.5,94.5 Z M 300.5,94.5 C 311.498,109.782 314.998,126.782 311,145.5C 305.833,138.5 300.667,131.5 295.5,124.5C 298.635,114.755 300.302,104.755 300.5,94.5 Z M 216.5,108.5 C 217.043,108.56 217.376,108.893 217.5,109.5C 207.624,131.96 197.457,154.293 187,176.5C 174.426,171.129 161.926,165.629 149.5,160C 172.263,143.298 194.596,126.131 216.5,108.5 Z M 328.5,117.5 C 364.082,125.787 394.416,143.12 419.5,169.5C 450.563,200.288 470.063,237.288 478,280.5C 481.224,300.707 477.891,319.707 468,337.5C 458.015,351.412 444.515,359.579 427.5,362C 400.048,363.47 374.715,356.803 351.5,342C 314.844,319.18 287.178,288.347 268.5,249.5C 288.563,230.691 304.73,209.024 317,184.5C 327.103,163.213 330.937,140.879 328.5,117.5 Z M 118.5,130.5 C 120.445,139.522 122.112,148.688 123.5,158C 115.167,164.5 106.833,171 98.5,177.5C 98.1667,177.333 97.8333,177.167 97.5,177C 104.915,161.672 111.915,146.172 118.5,130.5 Z M 288.5,144.5 C 294.317,151.827 299.984,159.327 305.5,167C 301.503,177.497 296.336,187.33 290,196.5C 283.681,189.193 277.848,181.526 272.5,173.5C 278.607,164.288 283.94,154.622 288.5,144.5 Z M 132.5,172.5 C 141.93,176.034 151.264,179.867 160.5,184C 142.818,187.004 125.152,189.67 107.5,192C 116.265,185.963 124.598,179.463 132.5,172.5 Z M 361.5,172.5 C 373.813,172.977 379.646,179.31 379,191.5C 374.458,202.855 366.625,206.022 355.5,201C 346.634,192.963 346.301,184.63 354.5,176C 356.925,174.787 359.259,173.621 361.5,172.5 Z M 260.5,188.5 C 267.295,195.812 273.628,203.645 279.5,212C 269.702,224.132 258.868,235.299 247,245.5C 240.62,237.242 234.12,229.076 227.5,221C 239.67,211.33 250.67,200.497 260.5,188.5 Z M 213.5,231.5 C 219.814,239.431 226.147,247.431 232.5,255.5C 220.043,264.817 206.543,272.484 192,278.5C 185.477,270.973 179.31,263.14 173.5,255C 187.719,248.401 201.052,240.568 213.5,231.5 Z M 414.5,233.5 C 428.986,236.472 433.486,244.806 428,258.5C 419.667,266.5 411.333,266.5 403,258.5C 397.284,245.823 401.118,237.49 414.5,233.5 Z M 331.5,249.5 C 342.44,249.458 348.773,254.791 350.5,265.5C 346.509,279.886 337.842,283.72 324.5,277C 316.075,265.018 318.408,255.851 331.5,249.5 Z M 154.5,261.5 C 156.371,261.859 157.871,262.859 159,264.5C 164.045,271.423 169.212,278.256 174.5,285C 163.496,289.068 152.163,291.068 140.5,291C 135.167,284 129.833,277 124.5,270C 134.876,268.076 144.876,265.243 154.5,261.5 Z M 253.5,261.5 C 261.749,274.461 270.416,287.294 279.5,300C 271.667,306.5 263.833,313 256,319.5C 245.997,306.841 237.497,293.174 230.5,278.5C 238.49,273.163 246.157,267.496 253.5,261.5 Z M 73.5,268.5 C 83.8063,269.979 94.1396,271.312 104.5,272.5C 109.288,278.577 113.955,284.744 118.5,291C 99.9153,290.374 84.9153,282.874 73.5,268.5 Z M 56.5,277.5 C 76.1307,299.674 100.964,310.341 131,309.5C 142.007,309.444 152.84,308.111 163.5,305.5C 163.833,305.833 164.167,306.167 164.5,306.5C 157.33,324.825 149.664,342.825 141.5,360.5C 137.032,358.084 132.366,356.584 127.5,356C 124.796,360.906 122.796,366.072 121.5,371.5C 126.575,372.526 131.242,374.526 135.5,377.5C 133.223,382.331 131.556,387.331 130.5,392.5C 135.41,393.859 140.244,395.526 145,397.5C 147.741,393.02 150.241,388.354 152.5,383.5C 156.984,385.243 161.317,387.243 165.5,389.5C 163.399,393.976 161.399,398.476 159.5,403C 164.125,405.561 168.959,407.728 174,409.5C 174.772,409.355 175.439,409.022 176,408.5C 177.743,404.016 179.743,399.683 182,395.5C 200.765,404.725 216.432,401.058 229,384.5C 233.999,374.86 234.499,365.027 230.5,355C 238.311,351.189 244.144,345.356 248,337.5C 268.025,361.074 291.525,380.24 318.5,395C 307.373,413.098 291.373,424.764 270.5,430C 228.33,438.796 187.663,434.129 148.5,416C 113.712,401.2 85.5455,378.367 64,347.5C 53.5452,331.347 49.2119,313.681 51,294.5C 52.1414,288.577 53.9747,282.91 56.5,277.5 Z M 214.5,286.5 C 219.805,296.435 225.638,306.102 232,315.5C 236.617,328.263 232.283,336.263 219,339.5C 204.553,334.526 190.386,328.86 176.5,322.5C 179.563,314.708 182.896,307.041 186.5,299.5C 196.404,296.212 205.738,291.879 214.5,286.5 Z M 289.5,313.5 C 290.239,313.369 290.906,313.536 291.5,314C 301.883,325.384 313.217,335.717 325.5,345C 317.667,351.5 309.833,358 302,364.5C 289.55,355.05 278.05,344.55 267.5,333C 275.094,326.718 282.427,320.218 289.5,313.5 Z M 35.5,327.5 C 39.1919,337.385 43.8585,346.885 49.5,356C 46.0713,363.451 42.738,370.951 39.5,378.5C 31.3403,361.925 30.007,344.925 35.5,327.5 Z M 169.5,338.5 C 183.179,344.229 196.845,350.062 210.5,356C 216.936,362.559 217.769,369.726 213,377.5C 208.756,382.043 203.589,383.877 197.5,383C 184.175,377.997 171.175,372.497 158.5,366.5C 162.741,357.358 166.407,348.025 169.5,338.5 Z M 339.5,355.5 C 348.992,360.412 358.659,365.078 368.5,369.5C 369.521,370.002 369.688,370.668 369,371.5C 362.243,377.271 355.243,382.604 348,387.5C 337.168,384.501 327.001,380.001 317.5,374C 325.024,367.969 332.357,361.802 339.5,355.5 Z M 60.5,372.5 C 68.2703,380.772 76.2703,388.938 84.5,397C 80.6708,405.816 76.8374,414.65 73,423.5C 64.4288,415.93 56.9288,407.43 50.5,398C 54.1339,389.595 57.4672,381.095 60.5,372.5 Z M 388.5,376.5 C 399.064,378.487 409.731,379.654 420.5,380C 405.736,391.192 389.07,395.525 370.5,393C 376.696,387.634 382.696,382.134 388.5,376.5 Z M 98.5,407.5 C 111.487,416.333 125.154,424.166 139.5,431C 136.142,438.736 132.976,446.57 130,454.5C 129.477,456.223 128.477,457.556 127,458.5C 112.779,452.311 99.6124,444.478 87.5,435C 90.8808,425.685 94.5475,416.518 98.5,407.5 Z M 299.5,436.5 C 300.239,436.369 300.906,436.536 301.5,437C 293.46,452.872 281.127,464.038 264.5,470.5C 263.417,469.635 263.251,468.635 264,467.5C 266.508,460.321 269.674,453.487 273.5,447C 282.696,444.552 291.362,441.052 299.5,436.5 Z M 155.5,437.5 C 170.509,442.33 185.509,446.663 200.5,450.5C 197.098,459.207 193.598,467.873 190,476.5C 189.439,477.022 188.772,477.355 188,477.5C 173.188,474.949 158.688,471.283 144.5,466.5C 147.57,456.624 151.237,446.957 155.5,437.5 Z M 249.5,450.5 C 250.552,450.351 251.552,450.517 252.5,451C 248.738,459.452 245.071,467.952 241.5,476.5C 230.263,478.916 218.93,479.582 207.5,478.5C 211.167,469.833 214.833,461.167 218.5,452.5C 228.992,451.833 239.326,451.167 249.5,450.5 Z"/></g>
<g><path style="opacity:0.915" fill="#000000" d="M 99.5,16.5 C 102.136,20.6649 104.636,24.9982 107,29.5C 107.749,30.635 107.583,31.635 106.5,32.5C 76.6865,49.2597 52.0198,71.7597 32.5,100C 27.3138,98.0579 22.6471,95.0579 18.5,91C 39.6716,59.6549 66.6716,34.8215 99.5,16.5 Z"/></g>
<g><path style="opacity:0.941" fill="#000000" d="M 237.5,71.5 C 246.671,71.1754 250.171,75.5088 248,84.5C 232,119.833 216,155.167 200,190.5C 199.215,192.286 198.049,193.786 196.5,195C 157.893,201.611 119.226,207.944 80.5,214C 68.955,216.126 64.7883,211.626 68,200.5C 84,165.167 100,129.833 116,94.5C 117.167,93.3333 118.333,92.1667 119.5,91C 158.984,84.5858 198.318,78.0858 237.5,71.5 Z M 201.5,94.5 C 179.031,98.5776 156.364,102.244 133.5,105.5C 135.087,119.192 136.92,132.858 139,146.5C 161.5,129.333 184,112.167 206.5,95C 204.866,94.5065 203.199,94.3398 201.5,94.5 Z M 216.5,108.5 C 194.596,126.131 172.263,143.298 149.5,160C 161.926,165.629 174.426,171.129 187,176.5C 197.457,154.293 207.624,131.96 217.5,109.5C 217.376,108.893 217.043,108.56 216.5,108.5 Z M 118.5,130.5 C 111.915,146.172 104.915,161.672 97.5,177C 97.8333,177.167 98.1667,177.333 98.5,177.5C 106.833,171 115.167,164.5 123.5,158C 122.112,148.688 120.445,139.522 118.5,130.5 Z M 132.5,172.5 C 124.598,179.463 116.265,185.963 107.5,192C 125.152,189.67 142.818,187.004 160.5,184C 151.264,179.867 141.93,176.034 132.5,172.5 Z"/></g>
<g><path style="opacity:0.882" fill="#000000" d="M 343.5,71.5 C 349.456,71.9722 355.289,72.9722 361,74.5C 360.503,79.8377 359.67,85.171 358.5,90.5C 353.153,89.9267 347.82,89.26 342.5,88.5C 342.76,82.828 343.093,77.1613 343.5,71.5 Z"/></g>
<g><path style="opacity:0.915" fill="#000000" d="M 379.5,79.5 C 419.382,95.2773 452.049,120.444 477.5,155C 473.071,158.295 468.571,161.462 464,164.5C 451.188,149.022 437.022,134.855 421.5,122C 406.731,110.945 390.731,101.945 373.5,95C 375.645,89.8783 377.645,84.7116 379.5,79.5 Z"/></g>
<g><path style="opacity:0.933" fill="#000000" d="M 359.5,155.5 C 378.924,154.764 391.091,163.764 396,182.5C 397.751,196.6 392.917,207.766 381.5,216C 378.395,217.868 375.062,219.035 371.5,219.5C 372.035,223.819 372.535,228.152 373,232.5C 377,233.833 381,235.167 385,236.5C 393.39,221.055 406.223,214.888 423.5,218C 438.853,222.858 446.853,233.358 447.5,249.5C 446.853,265.642 438.853,276.142 423.5,281C 401.632,283.954 387.966,274.788 382.5,253.5C 377.897,251.966 373.231,250.633 368.5,249.5C 366.67,249.58 365.337,250.413 364.5,252C 370.602,271.033 364.935,285.366 347.5,295C 326.043,301.354 311.21,294.188 303,273.5C 299.883,251.984 308.716,238.484 329.5,233C 338.097,231.785 345.93,233.618 353,238.5C 354.167,237.333 355.333,236.167 356.5,235C 355.597,229.892 354.763,224.725 354,219.5C 335.628,211.757 328.628,198.091 333,178.5C 337.702,165.958 346.535,158.291 359.5,155.5 Z M 361.5,172.5 C 359.259,173.621 356.925,174.787 354.5,176C 346.301,184.63 346.634,192.963 355.5,201C 366.625,206.022 374.458,202.855 379,191.5C 379.646,179.31 373.813,172.977 361.5,172.5 Z M 414.5,233.5 C 401.118,237.49 397.284,245.823 403,258.5C 411.333,266.5 419.667,266.5 428,258.5C 433.486,244.806 428.986,236.472 414.5,233.5 Z M 331.5,249.5 C 318.408,255.851 316.075,265.018 324.5,277C 337.842,283.72 346.509,279.886 350.5,265.5C 348.773,254.791 342.44,249.458 331.5,249.5 Z"/></g>
<g><path style="opacity:0.915" fill="#000000" d="M 458.5,404.5 C 462.36,408.879 465.694,413.713 468.5,419C 444.888,433.538 419.388,442.038 392,444.5C 391.397,439.445 390.564,434.445 389.5,429.5C 404.781,426.429 419.781,422.262 434.5,417C 443.002,413.584 451.002,409.417 458.5,404.5 Z"/></g>
<g><path style="opacity:0.89" fill="#000000" d="M 362.5,430.5 C 366.833,430.5 371.167,430.5 375.5,430.5C 375.907,436.161 376.24,441.828 376.5,447.5C 371.103,447.215 365.77,447.549 360.5,448.5C 359.248,442.901 358.582,437.234 358.5,431.5C 360.099,431.768 361.432,431.434 362.5,430.5 Z"/></g>
</svg>
