<?xml version="1.0" encoding="UTF-8"?>
<!DOCTYPE svg PUBLIC "-//W3C//DTD SVG 1.1//EN" "http://www.w3.org/Graphics/SVG/1.1/DTD/svg11.dtd">
<svg xmlns="http://www.w3.org/2000/svg" version="1.1" width="512px" height="512px" style="shape-rendering:geometricPrecision; text-rendering:geometricPrecision; image-rendering:optimizeQuality; fill-rule:evenodd; clip-rule:evenodd" xmlns:xlink="http://www.w3.org/1999/xlink">
<g><path style="opacity:0.99" fill="#000000" d="M 19.5,15.5 C 22.1873,15.3359 24.854,15.5026 27.5,16C 29.3333,16.5 30.5,17.6667 31,19.5C 31.3333,127.5 31.6667,235.5 32,343.5C 32.5,348 35,350.5 39.5,351C 47.4931,351.5 55.4931,351.666 63.5,351.5C 63.3333,309.165 63.5,266.832 64,224.5C 66.3513,217.481 70.8513,212.314 77.5,209C 84.7586,207.887 92.0919,207.387 99.5,207.5C 106.908,207.387 114.241,207.887 121.5,209C 128.149,212.314 132.649,217.481 135,224.5C 135.5,266.832 135.667,309.165 135.5,351.5C 146.167,351.5 156.833,351.5 167.5,351.5C 167.333,293.166 167.5,234.832 168,176.5C 170.351,169.481 174.851,164.314 181.5,161C 188.759,159.887 196.092,159.387 203.5,159.5C 210.908,159.387 218.241,159.887 225.5,161C 232.149,164.314 236.649,169.481 239,176.5C 239.667,207.167 239.667,237.833 239,268.5C 234,273.833 229,273.833 224,268.5C 223.667,240.167 223.333,211.833 223,183.5C 222.5,179 220,176.5 215.5,176C 207.5,175.333 199.5,175.333 191.5,176C 187,176.5 184.5,179 184,183.5C 183.5,239.499 183.333,295.499 183.5,351.5C 190.947,351.071 198.281,351.571 205.5,353C 207.429,356.256 207.929,359.756 207,363.5C 206.5,365.333 205.333,366.5 203.5,367C 146.5,367.667 89.5,367.667 32.5,367C 25.4808,364.649 20.3141,360.149 17,353.5C 15.3395,242.223 15.0062,130.889 16,19.5C 16.6897,17.6498 17.8564,16.3164 19.5,15.5 Z M 87.5,223.5 C 95.5069,223.334 103.507,223.5 111.5,224C 116,224.5 118.5,227 119,231.5C 119.5,271.499 119.667,311.499 119.5,351.5C 106.167,351.5 92.8333,351.5 79.5,351.5C 79.3333,311.499 79.5,271.499 80,231.5C 80.6804,226.989 83.1804,224.323 87.5,223.5 Z"/></g>
<g><path style="opacity:0.926" fill="#000000" d="M 251.5,15.5 C 270.17,15.3334 288.836,15.5001 307.5,16C 308.416,16.3742 309.25,16.8742 310,17.5C 311.143,27.4052 311.643,37.4052 311.5,47.5C 311.333,56.8333 311.167,66.1667 311,75.5C 310.626,76.4162 310.126,77.2496 309.5,78C 306.298,79.4833 302.964,79.8166 299.5,79C 297.667,78.5 296.5,77.3333 296,75.5C 295.667,65.1667 295.333,54.8333 295,44.5C 267.833,71.6667 240.667,98.8333 213.5,126C 209.5,128 205.5,128 201.5,126C 187.653,111.986 173.653,98.1526 159.5,84.5C 132.014,111.486 104.68,138.653 77.5,166C 65.3333,169.833 61.1667,165.667 65,153.5C 94.8612,123.305 125.028,93.4719 155.5,64C 158.964,63.1834 162.298,63.5167 165.5,65C 179.167,78.6667 192.833,92.3333 206.5,106C 207.167,106.667 207.833,106.667 208.5,106C 233.167,81.3333 257.833,56.6667 282.5,32C 271.403,31.9555 260.403,31.2889 249.5,30C 247.571,26.7441 247.071,23.2441 248,19.5C 248.69,17.6498 249.856,16.3164 251.5,15.5 Z"/></g>
<g><path style="opacity:0.979" fill="#000000" d="M 288.5,111.5 C 301.171,111.333 313.838,111.5 326.5,112C 334.667,114.833 340.167,120.333 343,128.5C 343.667,154.167 343.667,179.833 343,205.5C 341.471,208.516 338.971,209.849 335.5,209.5C 332.029,209.849 329.529,208.516 328,205.5C 327.667,182.167 327.333,158.833 327,135.5C 326.5,131 324,128.5 319.5,128C 310.424,127.087 301.424,127.42 292.5,129C 289.906,130.339 288.406,132.506 288,135.5C 287.667,165.5 287.333,195.5 287,225.5C 282,230.833 277,230.833 272,225.5C 271.333,193.167 271.333,160.833 272,128.5C 275.019,120.316 280.519,114.649 288.5,111.5 Z"/></g>
<g><path style="opacity:0.931" fill="#000000" d="M 342.5,223.5 C 400.426,219.548 445.259,241.548 477,289.5C 498.62,329.599 501.286,370.932 485,413.5C 463.357,460.425 426.857,487.592 375.5,495C 325.952,499.605 285.118,483.105 253,445.5C 219.038,398.732 214.038,349.066 238,296.5C 260.863,255.153 295.696,230.819 342.5,223.5 Z M 357.5,239.5 C 408.891,241.762 446.057,265.762 469,311.5C 486.705,357.261 480.371,399.261 450,437.5C 410.734,478.191 364.567,488.691 311.5,469C 258.28,441.736 235.113,398.236 242,338.5C 250.621,297.549 273.788,268.049 311.5,250C 326.404,243.99 341.737,240.49 357.5,239.5 Z M 360.5,271.5 C 407.224,275.724 435.724,300.724 446,346.5C 449.638,389.74 432.138,420.907 393.5,440C 348.867,455.234 312.7,443.734 285,405.5C 268.333,374.833 268.333,344.167 285,313.5C 303.124,286.854 328.291,272.854 360.5,271.5 Z"/></g>
<g><path style="opacity:0.932" fill="#000000" d="M 345.5,255.5 C 391.632,251.815 426.799,269.482 451,308.5C 464.104,333.988 467.104,360.654 460,388.5C 445.963,430.539 417.129,455.372 373.5,463C 327.347,467.173 292.181,449.673 268,410.5C 254.896,385.012 251.896,358.346 259,330.5C 273.207,288.449 302.04,263.449 345.5,255.5 Z M 360.5,271.5 C 328.291,272.854 303.124,286.854 285,313.5C 268.333,344.167 268.333,374.833 285,405.5C 312.7,443.734 348.867,455.234 393.5,440C 432.138,420.907 449.638,389.74 446,346.5C 435.724,300.724 407.224,275.724 360.5,271.5 Z"/></g>
<g><path style="opacity:0.934" fill="#000000" d="M 355.5,287.5 C 359.257,287.071 362.757,287.737 366,289.5C 367.388,294.372 367.888,299.372 367.5,304.5C 377.167,307 384.334,312.667 389,321.5C 391.978,328.346 392.144,335.179 389.5,342C 386.298,343.483 382.964,343.817 379.5,343C 377.667,342.5 376.5,341.333 376,339.5C 374.39,322.959 365.89,317.459 350.5,323C 342.5,331.333 342.5,339.667 350.5,348C 351.833,348.667 353.167,349.333 354.5,350C 381.29,351.117 393.457,364.95 391,391.5C 387.907,404.094 380.073,411.761 367.5,414.5C 367.666,418.846 367.499,423.179 367,427.5C 365.471,430.516 362.971,431.849 359.5,431.5C 356.029,431.849 353.529,430.516 352,427.5C 351.501,423.179 351.334,418.846 351.5,414.5C 341.833,412 334.666,406.333 330,397.5C 327.022,390.654 326.856,383.821 329.5,377C 332.702,375.517 336.036,375.183 339.5,376C 341.333,376.5 342.5,377.667 343,379.5C 344.61,396.041 353.11,401.541 368.5,396C 376.5,387.667 376.5,379.333 368.5,371C 367.167,370.333 365.833,369.667 364.5,369C 337.699,367.873 325.533,354.04 328,327.5C 331.093,314.906 338.927,307.239 351.5,304.5C 351.334,300.154 351.501,295.821 352,291.5C 352.69,289.65 353.856,288.316 355.5,287.5 Z"/></g>
</svg>
